<mxfile host="app.diagrams.net" agent="Mozilla/5.0 (Windows NT 10.0; Win64; x64) AppleWebKit/537.36 (KHTML, like Gecko) Chrome/130.0.0.0 Safari/537.36" version="24.7.17">
  <diagram name="Page-1" id="ADGU_JXGFBwW2ib7ndcU">
    <mxGraphModel dx="5227" dy="3102" grid="0" gridSize="10" guides="0" tooltips="1" connect="1" arrows="1" fold="1" page="1" pageScale="1" pageWidth="827" pageHeight="1169" math="0" shadow="0">
      <root>
        <mxCell id="0" />
        <mxCell id="1" parent="0" />
        <mxCell id="YTYZlwdAeC8upA6uMPMW-43" value="" style="rounded=0;whiteSpace=wrap;html=1;fillColor=none;dashed=1;dashPattern=8 8;strokeWidth=3;strokeColor=#000000;" vertex="1" parent="1">
          <mxGeometry x="390" width="1010" height="710" as="geometry" />
        </mxCell>
        <mxCell id="YTYZlwdAeC8upA6uMPMW-1" value="&lt;h1&gt;Client/User Interaction&lt;/h1&gt;" style="text;html=1;align=center;verticalAlign=middle;whiteSpace=wrap;rounded=0;" vertex="1" parent="1">
          <mxGeometry x="-50" y="30" width="270" height="100" as="geometry" />
        </mxCell>
        <mxCell id="YTYZlwdAeC8upA6uMPMW-2" value="" style="verticalLabelPosition=bottom;html=1;verticalAlign=top;align=center;strokeColor=none;fillColor=#00BEF2;shape=mxgraph.azure.computer;pointerEvents=1;" vertex="1" parent="1">
          <mxGeometry x="50" y="140" width="70" height="60" as="geometry" />
        </mxCell>
        <mxCell id="YTYZlwdAeC8upA6uMPMW-57" style="edgeStyle=orthogonalEdgeStyle;rounded=0;orthogonalLoop=1;jettySize=auto;html=1;exitX=0.5;exitY=1;exitDx=0;exitDy=0;entryX=0.5;entryY=1;entryDx=0;entryDy=0;strokeWidth=7;" edge="1" parent="1" source="YTYZlwdAeC8upA6uMPMW-3" target="YTYZlwdAeC8upA6uMPMW-14">
          <mxGeometry relative="1" as="geometry">
            <Array as="points">
              <mxPoint x="82" y="520" />
              <mxPoint x="835" y="520" />
            </Array>
          </mxGeometry>
        </mxCell>
        <mxCell id="YTYZlwdAeC8upA6uMPMW-3" value="Client (End User)" style="text;html=1;align=center;verticalAlign=middle;whiteSpace=wrap;rounded=0;" vertex="1" parent="1">
          <mxGeometry x="20" y="210" width="125" height="20" as="geometry" />
        </mxCell>
        <mxCell id="YTYZlwdAeC8upA6uMPMW-4" value="" style="endArrow=classic;html=1;rounded=0;strokeWidth=7;" edge="1" parent="1">
          <mxGeometry width="50" height="50" relative="1" as="geometry">
            <mxPoint x="145" y="169.57999999999998" as="sourcePoint" />
            <mxPoint x="470" y="170" as="targetPoint" />
          </mxGeometry>
        </mxCell>
        <mxCell id="YTYZlwdAeC8upA6uMPMW-6" value="" style="sketch=0;points=[[0,0,0],[0.25,0,0],[0.5,0,0],[0.75,0,0],[1,0,0],[0,1,0],[0.25,1,0],[0.5,1,0],[0.75,1,0],[1,1,0],[0,0.25,0],[0,0.5,0],[0,0.75,0],[1,0.25,0],[1,0.5,0],[1,0.75,0]];outlineConnect=0;fontColor=#232F3E;fillColor=#8C4FFF;strokeColor=#ffffff;dashed=0;verticalLabelPosition=bottom;verticalAlign=top;align=center;html=1;fontSize=12;fontStyle=0;aspect=fixed;shape=mxgraph.aws4.resourceIcon;resIcon=mxgraph.aws4.cloudfront;" vertex="1" parent="1">
          <mxGeometry x="511.25" y="122" width="78" height="78" as="geometry" />
        </mxCell>
        <mxCell id="YTYZlwdAeC8upA6uMPMW-7" value="HTTP/HTTPS Requests" style="text;html=1;align=center;verticalAlign=middle;whiteSpace=wrap;rounded=0;fontSize=21;" vertex="1" parent="1">
          <mxGeometry x="180" y="180" width="260" height="30" as="geometry" />
        </mxCell>
        <mxCell id="YTYZlwdAeC8upA6uMPMW-8" value="&lt;font style=&quot;font-size: 21px;&quot;&gt;Cloudfront&lt;/font&gt;" style="text;html=1;align=center;verticalAlign=middle;whiteSpace=wrap;rounded=0;" vertex="1" parent="1">
          <mxGeometry x="487.75" y="210" width="125" height="20" as="geometry" />
        </mxCell>
        <mxCell id="YTYZlwdAeC8upA6uMPMW-9" value="" style="sketch=0;points=[[0,0,0],[0.25,0,0],[0.5,0,0],[0.75,0,0],[1,0,0],[0,1,0],[0.25,1,0],[0.5,1,0],[0.75,1,0],[1,1,0],[0,0.25,0],[0,0.5,0],[0,0.75,0],[1,0.25,0],[1,0.5,0],[1,0.75,0]];outlineConnect=0;fontColor=#232F3E;fillColor=#7AA116;strokeColor=#ffffff;dashed=0;verticalLabelPosition=bottom;verticalAlign=top;align=center;html=1;fontSize=12;fontStyle=0;aspect=fixed;shape=mxgraph.aws4.resourceIcon;resIcon=mxgraph.aws4.s3;" vertex="1" parent="1">
          <mxGeometry x="511.25" y="330" width="78" height="78" as="geometry" />
        </mxCell>
        <mxCell id="YTYZlwdAeC8upA6uMPMW-10" value="" style="endArrow=classic;html=1;rounded=0;strokeWidth=7;" edge="1" parent="1">
          <mxGeometry width="50" height="50" relative="1" as="geometry">
            <mxPoint x="550.0999999999999" y="240" as="sourcePoint" />
            <mxPoint x="549.69" y="320" as="targetPoint" />
          </mxGeometry>
        </mxCell>
        <mxCell id="YTYZlwdAeC8upA6uMPMW-11" value="&lt;font style=&quot;font-size: 21px;&quot;&gt;Static Site Hosting&lt;/font&gt;" style="text;html=1;align=center;verticalAlign=middle;whiteSpace=wrap;rounded=0;" vertex="1" parent="1">
          <mxGeometry x="422.88" y="408" width="254.75" height="30" as="geometry" />
        </mxCell>
        <mxCell id="YTYZlwdAeC8upA6uMPMW-12" value="" style="sketch=0;points=[[0,0,0],[0.25,0,0],[0.5,0,0],[0.75,0,0],[1,0,0],[0,1,0],[0.25,1,0],[0.5,1,0],[0.75,1,0],[1,1,0],[0,0.25,0],[0,0.5,0],[0,0.75,0],[1,0.25,0],[1,0.5,0],[1,0.75,0]];outlineConnect=0;fontColor=#232F3E;fillColor=#E7157B;strokeColor=#ffffff;dashed=0;verticalLabelPosition=bottom;verticalAlign=top;align=center;html=1;fontSize=12;fontStyle=0;aspect=fixed;shape=mxgraph.aws4.resourceIcon;resIcon=mxgraph.aws4.api_gateway;" vertex="1" parent="1">
          <mxGeometry x="790.41" y="324" width="90" height="90" as="geometry" />
        </mxCell>
        <mxCell id="YTYZlwdAeC8upA6uMPMW-13" value="" style="endArrow=classic;html=1;rounded=0;strokeWidth=7;" edge="1" parent="1">
          <mxGeometry width="50" height="50" relative="1" as="geometry">
            <mxPoint x="612.75" y="380" as="sourcePoint" />
            <mxPoint x="780" y="380" as="targetPoint" />
          </mxGeometry>
        </mxCell>
        <mxCell id="YTYZlwdAeC8upA6uMPMW-14" value="&lt;font style=&quot;font-size: 21px;&quot;&gt;Routes API Requests&lt;/font&gt;" style="text;html=1;align=center;verticalAlign=middle;whiteSpace=wrap;rounded=0;" vertex="1" parent="1">
          <mxGeometry x="715.41" y="414" width="240" height="30" as="geometry" />
        </mxCell>
        <mxCell id="YTYZlwdAeC8upA6uMPMW-18" value="JavaScript API Calls" style="text;html=1;align=center;verticalAlign=middle;whiteSpace=wrap;rounded=0;fontSize=21;" vertex="1" parent="1">
          <mxGeometry x="-130" y="329" width="215" height="30" as="geometry" />
        </mxCell>
        <mxCell id="YTYZlwdAeC8upA6uMPMW-44" value="&lt;font size=&quot;1&quot; face=&quot;Verdana&quot; color=&quot;#ff8000&quot; style=&quot;&quot;&gt;&lt;b style=&quot;&quot;&gt;&lt;u style=&quot;font-size: 32px;&quot;&gt;AWS Services&lt;/u&gt;&lt;/b&gt;&lt;/font&gt;" style="text;html=1;align=center;verticalAlign=middle;whiteSpace=wrap;rounded=0;" vertex="1" parent="1">
          <mxGeometry x="1103" y="-89" width="297" height="95" as="geometry" />
        </mxCell>
        <mxCell id="YTYZlwdAeC8upA6uMPMW-50" value="" style="endArrow=classic;html=1;rounded=0;strokeWidth=7;" edge="1" parent="1">
          <mxGeometry width="50" height="50" relative="1" as="geometry">
            <mxPoint x="827" y="970" as="sourcePoint" />
            <mxPoint x="827" y="750" as="targetPoint" />
          </mxGeometry>
        </mxCell>
        <mxCell id="YTYZlwdAeC8upA6uMPMW-26" value="" style="dashed=0;outlineConnect=0;html=1;align=center;labelPosition=center;verticalLabelPosition=bottom;verticalAlign=top;shape=mxgraph.weblogos.github" vertex="1" parent="1">
          <mxGeometry x="50" y="960" width="100" height="100" as="geometry" />
        </mxCell>
        <mxCell id="YTYZlwdAeC8upA6uMPMW-27" value="&lt;font style=&quot;font-size: 21px;&quot;&gt;Source Code Repository&lt;/font&gt;" style="text;html=1;align=center;verticalAlign=middle;whiteSpace=wrap;rounded=0;" vertex="1" parent="1">
          <mxGeometry x="-40" y="1080" width="280" height="30" as="geometry" />
        </mxCell>
        <mxCell id="YTYZlwdAeC8upA6uMPMW-29" value="&lt;font style=&quot;font-size: 21px;&quot;&gt;Automates test, build and deploy&lt;/font&gt;" style="text;html=1;align=center;verticalAlign=middle;whiteSpace=wrap;rounded=0;" vertex="1" parent="1">
          <mxGeometry x="298.36" y="1080" width="320.75" height="100" as="geometry" />
        </mxCell>
        <mxCell id="YTYZlwdAeC8upA6uMPMW-30" value="" style="endArrow=classic;html=1;rounded=0;strokeWidth=7;" edge="1" parent="1">
          <mxGeometry width="50" height="50" relative="1" as="geometry">
            <mxPoint x="191.5" y="1032" as="sourcePoint" />
            <mxPoint x="361.5" y="1032" as="targetPoint" />
          </mxGeometry>
        </mxCell>
        <mxCell id="YTYZlwdAeC8upA6uMPMW-31" value="" style="outlineConnect=0;dashed=0;verticalLabelPosition=bottom;verticalAlign=top;align=center;html=1;shape=mxgraph.aws3.automation;fillColor=#759C3E;gradientColor=none;" vertex="1" parent="1">
          <mxGeometry x="407.45" y="1302" width="102.58" height="110" as="geometry" />
        </mxCell>
        <mxCell id="YTYZlwdAeC8upA6uMPMW-32" value="&lt;font style=&quot;font-size: 21px;&quot;&gt;End to End Front-End Testing&lt;/font&gt;" style="text;html=1;align=center;verticalAlign=middle;whiteSpace=wrap;rounded=0;" vertex="1" parent="1">
          <mxGeometry x="302.7" y="1432" width="306.26" height="30" as="geometry" />
        </mxCell>
        <mxCell id="YTYZlwdAeC8upA6uMPMW-33" value="" style="endArrow=classic;html=1;rounded=0;strokeWidth=7;" edge="1" parent="1">
          <mxGeometry width="50" height="50" relative="1" as="geometry">
            <mxPoint x="459.25" y="1172" as="sourcePoint" />
            <mxPoint x="459.25" y="1282" as="targetPoint" />
          </mxGeometry>
        </mxCell>
        <mxCell id="YTYZlwdAeC8upA6uMPMW-35" value="" style="shape=image;verticalLabelPosition=bottom;verticalAlign=top;imageAspect=0;image=https://www.datocms-assets.com/2885/1506457071-blog-terraform-list.svg;clipPath=inset(5.33% 22.33% 33.33% 21.67%);aspect=fixed;" vertex="1" parent="1">
          <mxGeometry x="771.5" y="982" width="127.82608695652173" height="140" as="geometry" />
        </mxCell>
        <mxCell id="YTYZlwdAeC8upA6uMPMW-37" value="" style="shape=image;verticalLabelPosition=bottom;labelBackgroundColor=default;verticalAlign=top;aspect=fixed;imageAspect=0;image=https://www.jenkins.io/images/logos/jenkins/256.png;" vertex="1" parent="1">
          <mxGeometry x="401.63" y="960" width="108.4" height="150" as="geometry" />
        </mxCell>
        <mxCell id="YTYZlwdAeC8upA6uMPMW-38" value="" style="endArrow=classic;html=1;rounded=0;strokeWidth=7;" edge="1" parent="1">
          <mxGeometry width="50" height="50" relative="1" as="geometry">
            <mxPoint x="561.5" y="1051" as="sourcePoint" />
            <mxPoint x="761.5" y="1051" as="targetPoint" />
          </mxGeometry>
        </mxCell>
        <mxCell id="YTYZlwdAeC8upA6uMPMW-39" value="&lt;font style=&quot;font-size: 21px;&quot;&gt;Provisions AWS Resources&lt;/font&gt;" style="text;html=1;align=center;verticalAlign=middle;whiteSpace=wrap;rounded=0;" vertex="1" parent="1">
          <mxGeometry x="695.04" y="1127" width="280.75" height="30" as="geometry" />
        </mxCell>
        <mxCell id="YTYZlwdAeC8upA6uMPMW-19" value="" style="sketch=0;points=[[0,0,0],[0.25,0,0],[0.5,0,0],[0.75,0,0],[1,0,0],[0,1,0],[0.25,1,0],[0.5,1,0],[0.75,1,0],[1,1,0],[0,0.25,0],[0,0.5,0],[0,0.75,0],[1,0.25,0],[1,0.5,0],[1,0.75,0]];outlineConnect=0;fontColor=#232F3E;fillColor=#ED7100;strokeColor=#ffffff;dashed=0;verticalLabelPosition=bottom;verticalAlign=top;align=center;html=1;fontSize=12;fontStyle=0;aspect=fixed;shape=mxgraph.aws4.resourceIcon;resIcon=mxgraph.aws4.lambda;" vertex="1" parent="1">
          <mxGeometry x="1120" y="320" width="88" height="88" as="geometry" />
        </mxCell>
        <mxCell id="YTYZlwdAeC8upA6uMPMW-20" value="" style="endArrow=classic;html=1;rounded=0;strokeWidth=7;" edge="1" parent="1">
          <mxGeometry width="50" height="50" relative="1" as="geometry">
            <mxPoint x="909.9999999999999" y="371.99999999999994" as="sourcePoint" />
            <mxPoint x="1110" y="372" as="targetPoint" />
          </mxGeometry>
        </mxCell>
        <mxCell id="YTYZlwdAeC8upA6uMPMW-21" value="&lt;font style=&quot;font-size: 21px;&quot;&gt;Processes Visitor Counter Logic&lt;/font&gt;" style="text;html=1;align=center;verticalAlign=middle;whiteSpace=wrap;rounded=0;" vertex="1" parent="1">
          <mxGeometry x="1011.9999999999999" y="408" width="304" height="30" as="geometry" />
        </mxCell>
        <mxCell id="YTYZlwdAeC8upA6uMPMW-23" value="&lt;font style=&quot;font-size: 21px;&quot;&gt;Stores Visitor Count&lt;/font&gt;" style="text;html=1;align=center;verticalAlign=middle;whiteSpace=wrap;rounded=0;" vertex="1" parent="1">
          <mxGeometry x="1056.25" y="620" width="215.5" height="30" as="geometry" />
        </mxCell>
        <mxCell id="YTYZlwdAeC8upA6uMPMW-60" value="" style="group" vertex="1" connectable="0" parent="1">
          <mxGeometry x="1125" y="452" width="78" height="168" as="geometry" />
        </mxCell>
        <mxCell id="YTYZlwdAeC8upA6uMPMW-22" value="" style="sketch=0;points=[[0,0,0],[0.25,0,0],[0.5,0,0],[0.75,0,0],[1,0,0],[0,1,0],[0.25,1,0],[0.5,1,0],[0.75,1,0],[1,1,0],[0,0.25,0],[0,0.5,0],[0,0.75,0],[1,0.25,0],[1,0.5,0],[1,0.75,0]];outlineConnect=0;fontColor=#232F3E;fillColor=#C925D1;strokeColor=#ffffff;dashed=0;verticalLabelPosition=bottom;verticalAlign=top;align=center;html=1;fontSize=12;fontStyle=0;aspect=fixed;shape=mxgraph.aws4.resourceIcon;resIcon=mxgraph.aws4.dynamodb;" vertex="1" parent="YTYZlwdAeC8upA6uMPMW-60">
          <mxGeometry y="90" width="78" height="78" as="geometry" />
        </mxCell>
        <mxCell id="YTYZlwdAeC8upA6uMPMW-46" value="" style="endArrow=classic;html=1;rounded=0;strokeWidth=7;" edge="1" parent="YTYZlwdAeC8upA6uMPMW-60">
          <mxGeometry width="50" height="50" relative="1" as="geometry">
            <mxPoint x="24" y="80" as="sourcePoint" />
            <mxPoint x="24" as="targetPoint" />
          </mxGeometry>
        </mxCell>
        <mxCell id="YTYZlwdAeC8upA6uMPMW-47" value="" style="endArrow=classic;html=1;rounded=0;strokeWidth=7;" edge="1" parent="YTYZlwdAeC8upA6uMPMW-60">
          <mxGeometry width="50" height="50" relative="1" as="geometry">
            <mxPoint x="54" as="sourcePoint" />
            <mxPoint x="54" y="80" as="targetPoint" />
          </mxGeometry>
        </mxCell>
        <mxCell id="YTYZlwdAeC8upA6uMPMW-61" value="" style="rounded=0;whiteSpace=wrap;html=1;fillColor=none;dashed=1;dashPattern=8 8;strokeWidth=3;strokeColor=#000000;" vertex="1" parent="1">
          <mxGeometry x="-32" y="871" width="1010" height="617" as="geometry" />
        </mxCell>
        <mxCell id="YTYZlwdAeC8upA6uMPMW-62" value="&lt;font size=&quot;1&quot; face=&quot;Verdana&quot; color=&quot;#ff8000&quot; style=&quot;&quot;&gt;&lt;b style=&quot;&quot;&gt;&lt;u style=&quot;font-size: 32px;&quot;&gt;CI/CD Pipeline&lt;/u&gt;&lt;/b&gt;&lt;/font&gt;" style="text;html=1;align=center;verticalAlign=middle;whiteSpace=wrap;rounded=0;" vertex="1" parent="1">
          <mxGeometry x="-58" y="785" width="297" height="95" as="geometry" />
        </mxCell>
      </root>
    </mxGraphModel>
  </diagram>
</mxfile>
